Coordinates
version=1
nRows=10
nColumns=34
inDegrees=yes

Units are S.I. units (second, meters, Newtons, ...)
If the header above contains a line with 'inDegrees', this indicates whether rotational values are in degrees (yes) or radians (no).

endheader
time	pelvis_tilt	pelvis_list	pelvis_rotation	pelvis_tx	pelvis_ty	pelvis_tz	hip_flexion_r	hip_adduction_r	hip_rotation_r	knee_angle_r	ankle_angle_r	subtalar_angle_r	mtp_angle_r	hip_flexion_l	hip_adduction_l	hip_rotation_l	knee_angle_l	ankle_angle_l	subtalar_angle_l	mtp_angle_l	lumbar_extension	lumbar_bending	lumbar_rotation	arm_flex_r	arm_add_r	arm_rot_r	elbow_flex_r	pro_sup_r	arm_flex_l	arm_add_l	arm_rot_l	elbow_flex_l	pro_sup_l
      0.00000000	     -1.22842424	     -1.64157707	     -2.60358924	      1.63057361	      0.85723545	     -0.05993430	      0.82566288	     -4.24483503	     -6.69285822	      6.85034761	      3.85592110	     -8.65604099	      0.00000000	     -0.79085114	     -6.61928983	     -4.90150536	      5.77959758	     10.20452443	     -3.13833533	      0.00000000	     -7.09687179	      2.49058619	     -1.97620478	     11.24234517	     -7.73376373	     36.52084742	     73.71322122	     91.10416384	      7.23003207	     -4.39512543	     30.62004888	     61.58174154	     80.62409452
      0.01666670	     -2.09185702	     -1.73251193	     -2.39929176	      1.63200594	      0.85584777	     -0.06042829	      1.53362384	     -3.71728882	     -5.87638091	      6.61398073	      6.56455369	     -7.66421636	      0.00000000	      0.57286669	     -6.35661130	     -4.43692950	      5.67591343	     10.95625775	     -2.21056475	      0.00000000	     -5.43111151	      3.02431422	     -2.42129481	     10.69085956	     -7.23167931	     34.97436800	     72.89445924	     90.54532534	      6.59183010	     -4.30352366	     29.37286096	     60.87207239	     80.10031722
      0.03333330	     -2.21294293	     -1.22031955	     -2.39801741	      1.63187794	      0.85559171	     -0.05989349	      1.36033887	     -4.25025959	     -6.12532190	      5.78156654	      6.65486284	     -7.59731128	      0.00000000	      0.58892809	     -5.86556003	     -4.56053589	      5.38661444	     10.76201290	     -2.00352784	      0.00000000	     -5.33835976	      2.37387029	     -2.15362639	     10.70866356	     -7.05917603	     34.78785351	     72.59809716	     90.50635979	      6.95271744	     -4.79769462	     28.97441670	     60.63932265	     79.99041031
      0.05000000	     -1.70803815	     -0.94626604	     -2.30261159	      1.63170392	      0.85687738	     -0.05954984	      0.58662984	     -4.62649902	     -6.21299584	      5.29524863	      6.92260079	     -7.25172169	      0.00000000	     -0.47323475	     -5.54587944	     -4.48402787	      4.54588841	     10.34548872	     -1.95326188	      0.00000000	     -5.72376378	      1.94898047	     -1.82074459	     10.65762529	     -6.84997596	     34.46889987	     71.95731627	     90.48637658	      7.40928535	     -4.94079689	     28.80439826	     60.13024861	     79.92559642
      0.06666670	     -1.74455113	     -0.88346996	     -2.20758836	      1.63161235	      0.85727647	     -0.05938420	      0.49116883	     -4.65118249	     -6.14479665	      5.05030752	      7.03537304	     -7.25223521	      0.00000000	     -0.57769401	     -5.48987832	     -4.34085761	      4.30083584	     10.39133361	     -1.93109711	      0.00000000	     -5.66974700	      1.97208823	     -1.69631763	     10.62171944	     -6.71041622	     34.57509825	     72.04338116	     90.49435451	      7.47780246	     -5.00290074	     28.81666537	     60.12485685	     79.93790770
      0.08333330	     -0.95094618	     -0.81921601	     -2.13981484	      1.63172128	      0.85866380	     -0.05912161	     -0.63789243	     -4.65907867	     -6.07531518	      4.56020755	      7.04971089	     -7.32859717	      0.00000000	     -1.78114142	     -5.35008054	     -3.76641009	      3.68970494	      9.88945892	     -2.37538273	      0.00000000	     -6.52178403	      1.77690354	     -1.52920929	     10.74676849	     -7.18862377	     35.56869699	     73.30313902	     90.54551824	      8.04138387	     -5.14112060	     29.97971565	     60.03936234	     80.34413636
      0.10000000	     -0.94194621	     -0.80115332	     -2.13282748	      1.63170623	      0.85876210	     -0.05877634	     -0.63158525	     -4.64359286	     -6.07193561	      4.55218840	      7.05287047	     -7.32893664	      0.00000000	     -1.79441651	     -5.34743745	     -3.76042112	      3.69577697	      9.88865986	     -2.37420808	      0.00000000	     -6.51143538	      1.77928458	     -1.52763800	     10.74655351	     -7.18300892	     35.57350635	     73.31006788	     90.54559616	      8.04537081	     -5.13710357	     29.98383496	     60.04243856	     80.34576530
      0.11666670	     -0.47792440	     -0.82146165	     -1.93639978	      1.63187644	      0.85878045	     -0.05870422	     -1.42849465	     -4.55406772	     -5.96584638	      4.09678170	      6.92933075	     -7.83532357	      0.00000000	     -2.39753878	     -5.34261666	     -3.04921270	      3.48963501	      9.63586595	     -2.80523692	      0.00000000	     -6.92551544	      1.80904999	     -1.51977097	     10.84558795	     -7.67015708	     36.70507537	     75.02936382	     90.51246118	      8.53807616	     -5.44357530	     31.43310851	     60.13650213	     80.90649942
      0.13333330	     -0.46673633	     -0.80815056	     -1.93444980	      1.63181825	      0.85848952	     -0.05850815	     -1.42145474	     -4.53281087	     -5.96230832	      4.09161728	      6.93023132	     -7.83506003	      0.00000000	     -2.40626810	     -5.33489041	     -3.04667644	      3.49864775	      9.63124132	     -2.80443745	      0.00000000	     -6.92133455	      1.80883419	     -1.52074264	     10.84040705	     -7.66951018	     36.70857494	     75.03194278	     90.51213990	      8.54166602	     -5.44236972	     31.43609353	     60.13796988	     80.90824229
      0.15000000	     -0.10691284	     -0.85501734	     -1.83537406	      1.63175462	      0.85878344	     -0.05834054	     -1.98929565	     -4.43319891	     -5.75844070	      3.77974416	      6.62011024	     -8.35859895	      0.00000000	     -2.83259224	     -5.39184325	     -2.60559514	      3.40747001	      9.13045853	     -3.23337426	      0.00000000	     -7.30125172	      1.82495730	     -1.41884927	     10.71803692	     -8.13263850	     37.32571150	     76.23505341	     90.35958248	      8.94479309	     -5.76791132	     32.60431775	     60.09248371	     81.48572281
